<svg width="21" height="21" viewBox="0 0 21 21" fill="none" xmlns="http://www.w3.org/2000/svg">
<path d="M15.0833 12.75H14.1617L13.835 12.4462C14.9783 11.1637 15.6667 9.49875 15.6667 7.6875C15.6667 3.64875 12.2717 0.375 8.08333 0.375C3.895 0.375 0.5 3.64875 0.5 7.6875C0.5 11.7262 3.895 15 8.08333 15C9.96167 15 11.6883 14.3363 13.0183 13.2338L13.3333 13.5488V14.4375L19.1667 20.0512L20.905 18.375L15.0833 12.75V12.75ZM8.08333 12.75C5.17833 12.75 2.83333 10.4888 2.83333 7.6875C2.83333 4.88625 5.17833 2.625 8.08333 2.625C10.9883 2.625 13.3333 4.88625 13.3333 7.6875C13.3333 10.4888 10.9883 12.75 8.08333 12.75Z" fill="black"/>
</svg>
